# AST/ASF file generated using VICON BodyLanguage
# -----------------------------------------------
:version 1.10
:name VICON
:units
  mass 1.0
  length 0.45
  angle deg
:documentation
   .ast/.asf automatically generated from VICON data using
   VICON BodyBuilder and BodyLanguage model FoxedUp or BRILLIANT.MOD
:root
   order TX TY TZ RX RY RZ
   axis XYZ
   position 0 0 0  
   orientation 0 0 0 
:bonedata
  begin
     id 1 
     name lhipjoint
     direction 0.612567 -0.751349 0.245431 
     length 2.42285 
     axis 0 0 0  XYZ
  end
  begin
     id 2 
     name lfemur
     direction 0.34202 -0.939693 0  
     length 7.11304  
     axis 0 0 20  XYZ
    dof rx ry rz
    limits (-160.0 20.0)
           (-70.0 70.0)
           (-60.0 70.0)
  end
  begin
     id 3 
     name ltibia
     direction 0.34202 -0.939693 0   
     length 7.84529   
     axis 0 0 20   XYZ
    dof rx
    limits (-10.0 170.0)
  end
  begin
     id 4 
     name lfoot
     direction 0.0779239 -0.214094 0.9737   
     length 1.97176   
     axis -90 7.62852e-016 20   XYZ
    dof rx rz
    limits (-45.0 90.0)
           (-70.0 20.0)
  end
  begin
     id 5 
     name ltoes
     direction 1.53565e-011 -4.21709e-011 1   
     length 0.993197   
     axis -90 7.62852e-016 20   XYZ
    dof rx
    limits (-90.0 20.0)
  end
  begin
     id 6 
     name rhipjoint
     direction -0.665722 -0.709315 0.231701   
     length 2.56642  
     axis 0 0 0  XYZ 
  end
  begin
     id 7 
     name rfemur
     direction -0.34202 -0.939693 0   
     length 7.32108   
     axis 0 0 -20   XYZ
    dof rx ry rz
    limits (-160.0 20.0)
           (-70.0 70.0)
           (-70.0 60.0)
  end
  begin
     id 8 
     name rtibia
     direction -0.34202 -0.939693 0   
     length 7.81254   
     axis 0 0 -20   XYZ
    dof rx
    limits (-10.0 170.0)
 end
 begin
     id 9 
     name rfoot
     direction -0.0832806 -0.228812 0.969902   
     length 2.08278  
     axis -90 -7.62852e-016 -20   XYZ
    dof rx rz
    limits (-45.0 90.0)
           (-20.0 70.0)
  end
  begin
     id 10 
     name rtoes
     direction -1.53589e-011 -4.22086e-011 1   
     length 1.04609   
     axis -90 -7.62852e-016 -20   XYZ
    dof rx
    limits (-90.0 20.0)
  end
  begin
     id 11 
     name lowerback
     direction -0.00506013 0.988403 -0.151766   
     length 2.01978   
     axis 0 0 0   XYZ
    dof rx ry rz
    limits (-20.0 45.0)
           (-30.0 30.0)
           (-30.0 30.0)
  end
  begin
     id 12 
     name upperback
     direction -0.00836389 0.99968 0.0238859   
     length 2.01276   
     axis 0 0 0   XYZ
    dof rx ry rz
    limits (-20.0 45.0)
           (-30.0 30.0)
           (-30.0 30.0)
  end
  begin
     id 13 
     name thorax
     direction -0.00684136 0.995386 0.0957043   
     length 2.07303   
     axis 0 0 0   XYZ
    dof rx ry rz
    limits (-20.0 45.0)
           (-30.0 30.0)
           (-30.0 30.0)
  end
  begin
     id 14 
     name lowerneck
     direction -0.0161045 0.999661 0.0204485   
     length 1.91243   
     axis 0 0 0   XYZ
    dof rx ry rz
    limits (-20.0 45.0)
           (-30.0 30.0)
           (-30.0 30.0)
  end
  begin
     id 15 
     name upperneck
     direction 0.0553583 0.990946 -0.122319   
     length 1.91574   
     axis 0 0 0   XYZ
    dof rx ry rz
    limits (-20.0 45.0)
           (-30.0 30.0)
           (-30.0 30.0)
  end
  begin
     id 16
     name head
     direction 0.0180273 0.998839 -0.0446756  
     length 1.92693  
     axis 0 0 0   XYZ
    dof rx ry rz
    limits (-20.0 45.0)
           (-30.0 30.0)
           (-30.0 30.0)
  end
  begin
     id 17 
     name lclavicle
     direction 0.945646 0.319323 -0.0615358  
     length 4.0076  
     axis 0 0 0   XYZ
    dof ry rz
    limits (-20.0 10.0)
           (0.0 20.0)
  end
  begin
     id 18 
     name lhumerus
     direction 1 -4.48967e-011 -2.79996e-027   
     length 5.64147   
     axis 180 -30 -90   XYZ
    dof rx ry rz
    limits (-60.0 90.0)
           (-90.0 90.0)
           (-90.0 90.0)
  end
  begin
     id 19
     name lradius
     direction 1 -4.48976e-011 -9.5122e-027   
     length 2.86444   
     axis 180 -30 -90   XYZ
    dof rx
    limits (-10.0 170.0)
  end
  begin
     id 20
     name lwrist
     direction 1 -4.48983e-011 -1.24047e-026   
     length 1.43222   
     axis 9.05591e-015 90 90   XYZ
    dof ry
    limits (-180.0 0.0)
 end
  begin
     id 21 
     name lhand
     direction 1 -4.4892e-011 -2.48094e-026   
     length 0.722123   
     axis 1.58305e-014 90 90   XYZ
    dof rx rz
    limits (-90.0 90.0)
           (-45.0 45.0)
  end
  begin
     id 22 
     name lfingers
     direction 1 -4.48895e-011 -4.96187e-026   
     length 0.582194   
     axis 3.1661e-014 90 90   XYZ
    dof rx
    limits (0.0 90.0)
  end
  begin
     id 23
     name lthumb
     direction 0.707107 -6.34961e-011 0.707107   
     length 0.835918   
     axis -90 45 2.85299e-015   XYZ
    dof rx rz
    limits (-45.0 45.0)
           (-45.0 45.0)
  end
  begin
     id 24 
     name rclavicle
     direction -0.932635 0.324218 -0.15835   
     length 3.65819  
     axis 0 0 0   XYZ 
    dof ry rz
    limits (-10.0 20.0)
           (-20.0 0.0)
  end
  begin
     id 25 
     name rhumerus
     direction -1 -4.48965e-011 -4.02296e-027  
     length 5.44729   
     axis 180 30 90   XYZ
    dof rx ry rz
    limits (-90.0 60.0)
           (-90.0 90.0)
           (-90.0 90.0)
  end
  begin
     id 26 
     name rradius
     direction -1 -4.48957e-011 -8.81087e-027   
     length 3.08821   
     axis 180 30 90   XYZ
    dof rx
    limits (-10.0 170.0)
  end
  begin
     id 27 
     name rwrist
     direction -1 -4.49015e-011 -1.24047e-026   
     length 1.5441   
     axis 9.05591e-015 -90 -90   XYZ
    dof ry
    limits (-180.0 0.0)
  end
  begin
     id 28
     name rhand
     direction -1 -4.4891e-011 -2.48094e-026   
     length 0.821049   
     axis 1.58305e-014 -90 -90   XYZ
    dof rx rz
    limits (-90.0 90.0)
           (-45.0 45.0)
  end
  begin
     id 29
     name rfingers
     direction -1 -4.48985e-011 -4.96187e-026   
     length 0.661951   
     axis 3.1661e-014 -90 -90   XYZ
    dof rx
    limits (0.0 90.0)
  end
  begin
     id 30
     name rthumb
     direction -0.707107 -6.34906e-011 0.707107   
     length 0.950433   
     axis -90 -45 -2.85299e-015   XYZ
    dof rx rz
    limits (-45.0 45.0)
           (-45.0 45.0)
  end
:hierarchy
  begin
    root lhipjoint rhipjoint lowerback
    lhipjoint lfemur
    lfemur ltibia
    ltibia lfoot
    lfoot ltoes
    rhipjoint rfemur
    rfemur rtibia
    rtibia rfoot
    rfoot rtoes
    lowerback upperback
    upperback thorax
    thorax lowerneck lclavicle rclavicle
    lowerneck upperneck
    upperneck head
    lclavicle lhumerus
    lhumerus lradius
    lradius lwrist
    lwrist lhand lthumb
    lhand lfingers
    rclavicle rhumerus
    rhumerus rradius
    rradius rwrist
    rwrist rhand rthumb
    rhand rfingers
  end

#!OML:ASF F:\VICON\USERDATA\INSTALL\rory3\rory3.ASF
:FULLY-SPECIFIED
:DEGREES
1756
root 3.47962 17.6433 0.0552908 34.9292 92.5909 35.8757
lowerback 3.68388 -0.0824433 2.8729
upperback -4.25454 0.109996 -0.323398
thorax -6.4946 -0.072484 -1.96098
lowerneck -8.95172 -5.50819 -4.14016
upperneck 5.08323 -7.29034 5.79793
head 3.69225 -3.44876 2.22273
rclavicle 3.23025e-016 -7.95139e-016
rhumerus 69.4857 -19.1085 -37.398
rradius 64.0844
rwrist -54.8967
rhand 4.20767 14.0249
rfingers 7.12502
rthumb 29.6139 -13.6315
lclavicle 3.23025e-016 -7.95139e-016
lhumerus 79.6331 12.2344 38.7657
lradius 69.5664
lwrist 110.761
lhand -1.24115 12.5352
lfingers 7.12502
lthumb 24.4011 41.0014
rfemur 1.94538 -0.148607 20.2267
rtibia 14.8891
rfoot -20.2429 -8.43439
rtoes -5.92386
lfemur -2.22715 0.472898 -14.9161
ltibia 16.2721
lfoot -12.6246 -3.53363
ltoes -1.58446
1757
root 3.47914 17.6442 0.0559805 34.6016 92.6112 35.5279
lowerback 3.69394 -0.0815224 2.86468
upperback -4.22882 0.109245 -0.334652
thorax -6.47307 -0.0724515 -1.96798
lowerneck -8.91663 -5.51012 -4.27704
upperneck 5.0445 -7.29431 6.04943
head 3.69337 -3.44347 2.33439
rclavicle 3.32964e-015 -4.57205e-015
rhumerus 67.8506 -19.5 -36.9885
rradius 66.3371
rwrist -54.8578
rhand 3.74608 14.1613
rfingers 7.12502
rthumb 29.1732 -13.5725
lclavicle 3.32964e-015 -4.57205e-015
lhumerus 78.4798 12.59 38.785
lradius 71.594
lwrist 110.592
lhand -1.25207 12.7765
lfingers 7.12502
lthumb 24.3906 41.2442
rfemur 1.93856 -0.125133 20.2335
rtibia 14.8748
rfoot -20.2975 -8.40336
rtoes -5.48803
lfemur -2.24495 0.464415 -14.9079
ltibia 16.2489
lfoot -12.6258 -3.57932
ltoes -1.40541
1758
root 3.47903 17.6433 0.0561167 35.837 92.664 36.7524
lowerback 3.71754 -0.0831545 2.9416
upperback -4.21264 0.112747 -0.327403
thorax -6.46968 -0.0741481 -2.00395
lowerneck -8.87211 -5.53417 -4.34207
upperneck 4.95955 -7.32628 6.19115
head 3.66815 -3.4559 2.39375
rclavicle 1.31695e-015 -8.54774e-015
rhumerus 66.2241 -19.8678 -36.775
rradius 68.578
rwrist -54.8279
rhand 3.3553 14.3402
rfingers 7.12502
rthumb 28.8 -13.4578
lclavicle 1.31695e-015 -8.54774e-015
lhumerus 77.2897 12.8831 39.0071
lradius 73.6
lwrist 110.226
lhand -1.16049 13.2021
lfingers 7.12502
lthumb 24.4784 41.6579
rfemur 1.94932 -0.15638 20.317
rtibia 14.8431
rfoot -20.2657 -8.3775
rtoes -5.42202
lfemur -2.25416 0.43953 -14.8219
ltibia 16.2463
lfoot -12.6365 -3.54253
ltoes -1.30302
1759
root 3.47868 17.6434 0.0560752 36.6587 92.6812 37.552
lowerback 3.74401 -0.0650547 2.97872
upperback -4.20594 0.139875 -0.329522
thorax -6.47645 -0.0627265 -2.0296
lowerneck -8.87455 -5.55616 -4.349
upperneck 4.97087 -7.35888 6.23923
head 3.67768 -3.46981 2.40917
rclavicle 2.11209e-015 -5.1684e-015
rhumerus 64.4655 -20.2979 -36.6185
rradius 70.9224
rwrist -54.948
rhand 3.20555 14.4339
rfingers 7.12502
rthumb 28.657 -13.3883
lclavicle 2.11209e-015 -5.1684e-015
lhumerus 75.9741 13.1216 39.2112
lradius 75.6813
lwrist 109.702
lhand -0.977875 13.3181
lfingers 7.12502
lthumb 24.6534 41.7501
rfemur 1.95069 -0.179143 20.36
rtibia 14.7951
rfoot -20.1969 -8.44779
rtoes -6.00968
lfemur -2.28269 0.474176 -14.7709
ltibia 16.2554
lfoot -12.6074 -3.59488
ltoes -0.890344
1760
root 3.47924 17.6431 0.055593 36.9819 92.6614 37.8845
lowerback 3.77796 -0.0500078 2.97964
upperback -4.18553 0.159692 -0.338149
thorax -6.47319 -0.0532308 -2.04102
lowerneck -8.90473 -5.56497 -4.34757
upperneck 5.02572 -7.37501 6.2716
head 3.70564 -3.47517 2.4182
rclavicle 2.73329e-016 3.37934e-015
rhumerus 62.6561 -20.7675 -36.57
rradius 73.2858
rwrist -55.094
rhand 3.21329 14.4967
rfingers 7.12502
rthumb 28.6644 -13.3243
lclavicle 2.73329e-016 3.37934e-015
lhumerus 74.4727 13.3964 39.2328
lradius 77.8536
lwrist 109.298
lhand -0.89852 12.8938
lfingers 7.12502
lthumb 24.7295 41.3154
rfemur 1.97847 -0.229266 20.3502
rtibia 14.7469
rfoot -20.1249 -8.41034
rtoes -6.20074
lfemur -2.27711 0.527049 -14.7691
ltibia 16.2711
lfoot -12.6159 -3.60107
ltoes -1.11642
1761
root 3.4796 17.6439 0.0563358 36.4295 92.6337 37.3749
lowerback 3.86224 -0.0387205 2.93336
upperback -4.17585 0.171812 -0.366696
thorax -6.51068 -0.0466311 -2.04633
lowerneck -8.83245 -5.582 -4.32742
upperneck 5.01953 -7.40552 6.31897
head 3.69284 -3.48897 2.43015
rclavicle -3.47873e-015 -8.94531e-015
rhumerus 60.8403 -21.2425 -36.6193
rradius 75.4646
rwrist -55.1271
rhand 3.21722 14.7914
rfingers 7.12502
rthumb 28.6681 -13.0289
lclavicle -3.47873e-015 -8.94531e-015
lhumerus 72.869 13.6884 39.2437
lradius 80.0924
lwrist 109.136
lhand -1.12677 12.5921
lfingers 7.12502
lthumb 24.5107 41.0435
rfemur 2.01995 -0.236218 20.3103
rtibia 14.7401
rfoot -20.0964 -8.41
rtoes -6.08508
lfemur -2.21517 0.48527 -14.8111
ltibia 16.2521
lfoot -12.6542 -3.5229
ltoes -1.50143
1762
root 3.47972 17.6451 0.058938 36.1775 92.6555 37.114
lowerback 3.90322 -0.0323782 2.88866
upperback -4.17939 0.178917 -0.358753
thorax -6.53755 -0.0412985 -2.0138
lowerneck -8.63755 -5.60546 -4.3744
upperneck 4.85246 -7.43556 6.40934
head 3.6057 -3.5062 2.47201
rclavicle -2.75814e-015 3.57812e-015
rhumerus 58.9889 -21.7581 -36.6751
rradius 77.6057
rwrist -55.2241
rhand 3.20648 15.027
rfingers 7.12502
rthumb 28.6578 -12.7951
lclavicle -2.75814e-015 3.57812e-015
lhumerus 71.1851 14.0137 39.4981
lradius 82.4186
lwrist 109.224
lhand -1.0298 12.7213
lfingers 7.12502
lthumb 24.6036 41.1601
rfemur 2.00405 -0.197988 20.3341
rtibia 14.761
rfoot -20.1238 -8.45186
rtoes -5.3294
lfemur -2.20942 0.460714 -14.7984
ltibia 16.2103
lfoot -12.6491 -3.50033
ltoes -1.46105
1763
root 3.47828 17.6457 0.0603323 36.0335 92.6635 36.9511
lowerback 3.96741 -0.0331958 2.86681
upperback -4.17867 0.178566 -0.348951
thorax -6.57382 -0.0408705 -1.99155
lowerneck -8.51141 -5.60962 -4.38786
upperneck 4.73654 -7.44005 6.44463
head 3.54362 -3.51075 2.48911
rclavicle 1.41634e-015 -2.18663e-015
rhumerus 57.0698 -22.311 -36.7293
rradius 79.7805
rwrist -55.3039
rhand 3.06382 15.2398
rfingers 7.12502
rthumb 28.5215 -12.6052
lclavicle 1.41634e-015 -2.18663e-015
lhumerus 69.3935 14.4316 39.7673
lradius 84.6445
lwrist 109.556
lhand -0.246391 12.7246
lfingers 7.12502
lthumb 25.3544 41.059
rfemur 1.96332 -0.215285 20.3368
rtibia 14.7949
rfoot -20.1307 -8.44961
rtoes -4.8174
lfemur -2.20585 0.4752 -14.7921
ltibia 16.1587
lfoot -12.6168 -3.51178
ltoes -1.748
1764
root 3.47774 17.6442 0.0603187 35.3147 92.6412 36.2222
lowerback 4.03265 -0.0361963 2.82115
upperback -4.1645 0.172648 -0.345832
thorax -6.59663 -0.0420143 -1.96231
lowerneck -8.38014 -5.6109 -4.45574
upperneck 4.60843 -7.43545 6.49539
head 3.47969 -3.51166 2.52226
rclavicle -1.09332e-015 -4.37326e-015
rhumerus 54.9896 -22.8952 -36.8215
rradius 82.052
rwrist -55.3804
rhand 2.88765 15.322
rfingers 7.12502
rthumb 28.3532 -12.5511
lclavicle -1.09332e-015 -4.37326e-015
lhumerus 67.4916 14.9174 40.0265
lradius 86.7829
lwrist 109.949
lhand 0.552107 12.6352
lfingers 7.12502
lthumb 26.1191 40.8589
rfemur 1.94206 -0.158456 20.2929
rtibia 14.8185
rfoot -20.1928 -8.41729
rtoes -5.86174
lfemur -2.20403 0.498834 -14.8397
ltibia 16.1186
lfoot -12.5501 -3.51946
ltoes -1.6713
1765
root 3.47682 17.6446 0.0606252 33.735 92.6077 34.6219
lowerback 4.1023 -0.0458288 2.73473
upperback -4.15178 0.154267 -0.354734
thorax -6.62406 -0.0477622 -1.92156
lowerneck -8.29721 -5.62745 -4.52506
upperneck 4.51936 -7.45161 6.54357
head 3.44008 -3.52166 2.5523
rclavicle 4.94477e-015 2.5842e-015
rhumerus 52.7874 -23.5325 -36.8759
rradius 84.3461
rwrist -55.5743
rhand 2.67553 15.3392
rfingers 7.12502
rthumb 28.1505 -12.5675
lclavicle 4.94477e-015 2.5842e-015
lhumerus 65.5185 15.4816 40.3663
lradius 88.9533
lwrist 110.176
lhand 1.19589 12.9
lfingers 7.12502
lthumb 26.7353 41.0311
rfemur 1.90066 -0.196881 20.201
rtibia 14.8525
rfoot -20.159 -8.42076
rtoes -7.22013
lfemur -2.21727 0.452466 -14.9329
ltibia 16.0765
lfoot -12.5438 -3.47823
ltoes -1.79133
1766
root 3.4767 17.6454 0.0618917 33.5653 92.6161 34.4628
lowerback 4.20256 -0.0619838 2.69648
upperback -4.14453 0.13363 -0.329394
thorax -6.6753 -0.0563757 -1.87194
lowerneck -8.2909 -5.63518 -4.61485
upperneck 4.55213 -7.45906 6.61196
head 3.45952 -3.52432 2.5919
rclavicle -5.49143e-015 4.17448e-015
rhumerus 50.6144 -24.1882 -36.8235
rradius 86.44
rwrist -55.7973
rhand 2.5256 15.7136
rfingers 7.12502
rthumb 28.0071 -12.2166
lclavicle -5.49143e-015 4.17448e-015
lhumerus 63.4878 16.0907 40.7356
lradius 91.0454
lwrist 110.107
lhand 1.374 13.4962
lfingers 7.12502
lthumb 26.9058 41.6011
rfemur 1.90737 -0.191832 20.2021
rtibia 14.8647
rfoot -20.2016 -8.38361
rtoes -6.11005
lfemur -2.18907 0.435642 -14.9261
ltibia 16.0472
lfoot -12.5031 -3.52989
ltoes -1.24113
1767
root 3.47619 17.6452 0.0630696 33.4348 92.6255 34.3442
lowerback 4.28047 -0.0678638 2.67641
upperback -4.11057 0.125051 -0.327568
thorax -6.68458 -0.0598787 -1.85807
lowerneck -8.35758 -5.6492 -4.621
upperneck 4.60536 -7.48061 6.65561
head 3.49522 -3.53141 2.60513
rclavicle -3.37934e-015 3.37934e-015
rhumerus 48.4626 -24.9353 -36.7579
rradius 88.3473
rwrist -55.9675
rhand 2.51526 16.1199
rfingers 7.12502
rthumb 27.9973 -11.8119
lclavicle -3.37934e-015 3.37934e-015
lhumerus 61.4326 16.6751 41.0911
lradius 93.0521
lwrist 109.764
lhand 1.40079 13.7442
lfingers 7.12502
lthumb 26.9314 41.8452
rfemur 1.93407 -0.152114 20.2112
rtibia 14.8474
rfoot -20.272 -8.39647
rtoes -5.42918
lfemur -2.16953 0.430771 -14.9201
ltibia 16.04
lfoot -12.4601 -3.56795
ltoes -0.843439
1768
root 3.4758 17.6457 0.0648058 34.1052 92.6515 35.0265
lowerback 4.38075 -0.0620532 2.68025
upperback -4.07141 0.134879 -0.316281
thorax -6.70039 -0.0553196 -1.84964
lowerneck -8.36775 -5.66926 -4.64696
upperneck 4.59435 -7.51117 6.76851
head 3.5033 -3.54209 2.64656
rclavicle -4.82053e-015 -5.96354e-015
rhumerus 46.1539 -25.7221 -36.6139
rradius 90.21
rwrist -56.094
rhand 2.54709 16.2457
rfingers 7.12502
rthumb 28.0277 -11.6812
lclavicle -4.82053e-015 -5.96354e-015
lhumerus 59.176 17.2907 41.3765
lradius 95.1632
lwrist 109.571
lhand 1.83268 13.7306
lfingers 7.12502
lthumb 27.3446 41.7671
rfemur 1.97338 -0.133741 20.2663
rtibia 14.7933
rfoot -20.2264 -8.51044
rtoes -5.90023
lfemur -2.18213 0.477046 -14.8673
ltibia 16.0698
lfoot -12.4732 -3.59325
ltoes -0.792876
1769
root 3.4755 17.646 0.065065 34.8159 92.672 35.7377
lowerback 4.49842 -0.0611127 2.71775
upperback -4.04055 0.140935 -0.31445
thorax -6.73541 -0.0548149 -1.86975
lowerneck -8.30065 -5.65492 -4.76997
upperneck 4.54017 -7.49343 7.00228
head 3.4906 -3.52794 2.75282
rclavicle 2.95692e-015 -1.78906e-015
rhumerus 43.6497 -26.52 -36.3386
rradius 92.0927
rwrist -56.3121
rhand 2.57461 16.3451
rfingers 7.12502
rthumb 28.054 -11.5774
lclavicle 2.95692e-015 -1.78906e-015
lhumerus 56.811 18.0177 41.65
lradius 97.3
lwrist 109.526
lhand 2.31734 13.9256
lfingers 7.12502
lthumb 27.808 41.8881
rfemur 1.99678 -0.11849 20.3175
rtibia 14.7366
rfoot -20.1501 -8.5668
rtoes -6.15372
lfemur -2.21258 0.534092 -14.8164
ltibia 16.1133
lfoot -12.5119 -3.6152
ltoes -1.18064
1770
root 3.47529 17.6452 0.0648684 35.2017 92.71 36.1343
lowerback 4.64554 -0.0661733 2.75178
upperback -4.03501 0.140764 -0.308315
thorax -6.81479 -0.0578368 -1.88301
lowerneck -8.15758 -5.63135 -4.82671
upperneck 4.43531 -7.4644 7.15041
head 3.43618 -3.51258 2.81966
rclavicle 0 0
rhumerus 40.954 -27.3036 -36.0125
rradius 94.0068
rwrist -56.5692
rhand 2.46272 16.4786
rfingers 7.12502
rthumb 27.947 -11.4614
lclavicle 0 0
lhumerus 54.4388 18.7341 41.9996
lradius 99.3155
lwrist 109.51
lhand 2.54189 13.9783
lfingers 7.12502
lthumb 28.0227 41.9059
rfemur 2.04281 -0.112203 20.3585
rtibia 14.6814
rfoot -20.176 -8.49418
rtoes -5.68061
lfemur -2.22077 0.489867 -14.7777
ltibia 16.1426
lfoot -12.5173 -3.58665
ltoes -1.50246
